<svg width="51" height="51" viewBox="0 0 51 51" fill="none" xmlns="http://www.w3.org/2000/svg">
<path d="M19.3475 46.7883C17.8228 46.7883 16.3999 45.9006 15.7212 44.5273L14.7297 42.5187L12.4923 42.7455C12.3493 42.7607 12.2112 42.768 12.0754 42.768C9.40171 42.768 7.22736 40.6042 7.22736 37.9436C7.22736 37.0374 7.48915 36.1489 7.98527 35.3729L9.64492 32.7766L7.11181 31.0125C5.15966 29.652 3.99532 27.4344 3.99532 25.0784C3.99532 22.4765 5.42065 20.061 7.71378 18.7753L10.0918 17.4422L9.169 14.8852C8.95326 14.287 8.84338 13.6582 8.84338 13.0174C8.84338 10.3511 10.7454 8.03133 13.3666 7.50145L14.9632 7.17902L15.6905 5.70194C16.3546 4.28437 17.7897 3.36853 19.3475 3.36853C21.5752 3.36853 23.3876 5.17206 23.3876 7.38888V42.768C23.3876 44.9848 21.5752 46.7883 19.3475 46.7883Z" fill="#4BA3DD"/>
<ellipse cx="43.5878" cy="7.38888" rx="4.04005" ry="4.02035" fill="#4BA3DD"/>
<ellipse cx="46.8198" cy="21.0581" rx="4.04005" ry="4.02035" fill="#4BA3DD"/>
<ellipse cx="46.8198" cy="29.0987" rx="4.04005" ry="4.02035" fill="#4BA3DD"/>
<ellipse cx="43.5878" cy="42.7679" rx="4.04005" ry="4.02035" fill="#4BA3DD"/>
<path fill-rule="evenodd" clip-rule="evenodd" d="M37.9317 29.9028H26.6196V33.1191H30.6596V34.7272H26.6196V42.7679C26.6196 46.7577 23.3569 50.0046 19.3475 50.0046C16.5768 50.0046 14.0308 48.3972 12.8212 45.9464C12.5659 45.9714 12.3186 45.9842 12.0754 45.9842C7.62005 45.9842 3.99532 42.3772 3.99532 37.9435C3.99532 36.3627 4.46234 34.8913 5.25743 33.6466C2.46656 31.7023 0.763275 28.4981 0.763275 25.0784C0.763275 21.3081 2.84552 17.8128 6.12685 15.9731C5.78425 15.0219 5.61134 14.0305 5.61134 13.0173C5.61134 8.82734 8.60178 5.18168 12.7226 4.34947L12.7606 4.34143C13.9201 1.87132 16.433 0.152222 19.3475 0.152222C23.3569 0.152222 26.6196 3.39906 26.6196 7.38885V15.4296H34.6997V17.0377H26.6196V20.254H28.2356V21.8621H26.6196V28.2947H37.9317V29.9028ZM19.3475 48.3964C22.4664 48.3964 25.0036 45.8717 25.0036 42.7679V7.38885C25.0036 4.28514 22.4664 1.76036 19.3475 1.76036C16.2286 1.76036 13.6914 4.28514 13.6914 7.38885C13.6914 8.37786 13.9532 9.35159 14.4477 10.2023L13.0491 11.0072C12.4124 9.91203 12.0754 8.66089 12.0754 7.38885C12.0754 6.96993 12.119 6.56147 12.1885 6.16184C9.26516 7.1404 7.22736 9.89032 7.22736 13.0173C7.22736 14.0538 7.44956 15.0621 7.8875 16.0165L8.2204 16.7402L7.49642 17.0787C4.38801 18.5333 2.3793 21.6732 2.3793 25.0784C2.3793 28.002 3.86119 30.7278 6.26663 32.3681C7.73721 30.8516 9.79521 29.9028 12.0754 29.9028V31.511C8.51128 31.511 5.61133 34.3968 5.61133 37.9435C5.61133 41.4903 8.51128 44.3761 12.0754 44.3761C12.4212 44.3761 12.7824 44.3431 13.1783 44.274L13.8328 44.1614L14.0704 44.7789C14.9043 46.9427 17.0245 48.3964 19.3475 48.3964Z" fill="black"/>
<path d="M19.3475 45.1802V46.7883C21.5752 46.7883 23.3876 44.9848 23.3876 42.7679H21.7715C21.7715 44.0979 20.684 45.1802 19.3475 45.1802Z" fill="black"/>
<path d="M8.84338 37.9435H7.22736C7.22736 40.6041 9.40171 42.7679 12.0754 42.7679V41.1598C10.2929 41.1598 8.84338 39.7173 8.84338 37.9435Z" fill="black"/>
<path fill-rule="evenodd" clip-rule="evenodd" d="M44.3958 37.1395V40.5037C45.3339 40.8366 46.0118 41.7211 46.0118 42.768C46.0118 44.0979 44.9243 45.1802 43.5878 45.1802C42.2514 45.1802 41.1638 44.0979 41.1638 42.768C41.1638 41.7211 41.8417 40.8366 42.7798 40.5037V37.1395C42.7798 35.8096 41.6922 34.7273 40.3558 34.7273H32.2757V33.1191H40.3558C42.5834 33.1191 44.3958 34.9227 44.3958 37.1395ZM42.7798 42.768C42.7798 43.211 43.1426 43.5721 43.5878 43.5721C44.033 43.5721 44.3958 43.211 44.3958 42.768C44.3958 42.3249 44.033 41.9639 43.5878 41.9639C43.1426 41.9639 42.7798 42.3249 42.7798 42.768Z" fill="black"/>
<path fill-rule="evenodd" clip-rule="evenodd" d="M44.5445 28.2947C44.879 27.3611 45.7678 26.6865 46.8199 26.6865C48.1563 26.6865 49.2439 27.7688 49.2439 29.0987C49.2439 30.4287 48.1563 31.5109 46.8199 31.5109C45.7678 31.5109 44.879 30.8363 44.5445 29.9028H39.5478V28.2947H44.5445ZM46.0118 29.0987C46.0118 29.5418 46.3746 29.9028 46.8199 29.9028C47.2651 29.9028 47.6279 29.5418 47.6279 29.0987C47.6279 28.6557 47.2651 28.2947 46.8199 28.2947C46.3746 28.2947 46.0118 28.6557 46.0118 29.0987Z" fill="black"/>
<path fill-rule="evenodd" clip-rule="evenodd" d="M29.8516 20.254H44.5445C44.879 19.3205 45.7678 18.6459 46.8198 18.6459C48.1563 18.6459 49.2439 19.7282 49.2439 21.0581C49.2439 22.388 48.1563 23.4703 46.8198 23.4703C45.7678 23.4703 44.879 22.7957 44.5445 21.8622H29.8516V20.254ZM47.6279 21.0581C47.6279 20.615 47.2651 20.254 46.8198 20.254C46.3746 20.254 46.0118 20.615 46.0118 21.0581C46.0118 21.5011 46.3746 21.8622 46.8198 21.8622C47.2651 21.8622 47.6279 21.5011 47.6279 21.0581Z" fill="black"/>
<path fill-rule="evenodd" clip-rule="evenodd" d="M44.3958 9.65316V13.0174C44.3958 15.2342 42.5834 17.0377 40.3558 17.0377H36.3157V15.4296H40.3558C41.6922 15.4296 42.7798 14.3473 42.7798 13.0174V9.65316C41.8417 9.32027 41.1638 8.4358 41.1638 7.3889C41.1638 6.05896 42.2513 4.97668 43.5878 4.97668C44.9242 4.97668 46.0118 6.05896 46.0118 7.3889C46.0118 8.4358 45.3339 9.32027 44.3958 9.65316ZM44.3958 7.3889C44.3958 6.94585 44.033 6.58483 43.5878 6.58483C43.1426 6.58483 42.7798 6.94585 42.7798 7.3889C42.7798 7.83194 43.1426 8.19297 43.5878 8.19297C44.033 8.19297 44.3958 7.83194 44.3958 7.3889Z" fill="black"/>
<path d="M9.55359 20.9608C7.97797 22.5279 7.97797 25.0793 9.55359 26.6464L10.6961 25.5094C9.75155 24.5687 9.75155 23.0385 10.6961 22.0978C11.6415 21.1562 13.1791 21.157 14.1245 22.0978L15.267 20.9608C13.6914 19.3937 11.1284 19.3929 9.55359 20.9608Z" fill="black"/>
<path d="M19.3475 3.36853C17.1198 3.36853 15.3074 5.17206 15.3074 7.38888H16.9235C16.9235 6.05895 18.0111 4.97667 19.3475 4.97667C20.6839 4.97667 21.7715 6.05895 21.7715 7.38888H23.3875C23.3875 5.17206 21.5752 3.36853 19.3475 3.36853Z" fill="black"/>
<path d="M22.5795 18.6458C22.5795 16.429 20.7672 14.6255 18.5395 14.6255V16.2336C19.8759 16.2336 20.9635 17.3159 20.9635 18.6458C20.9635 19.9758 19.8759 21.058 18.5395 21.058V22.6662C20.7672 22.6662 22.5795 20.8627 22.5795 18.6458Z" fill="black"/>
<path d="M14.4995 35.5313C14.4995 37.7482 16.3118 39.5517 18.5395 39.5517V37.9436C17.2031 37.9436 16.1155 36.8613 16.1155 35.5313C16.1155 34.2014 17.2031 33.1191 18.5395 33.1191V31.511C16.3118 31.511 14.4995 33.3145 14.4995 35.5313Z" fill="black"/>
</svg>
