<svg width="28" height="35" viewBox="0 0 28 35" fill="none" xmlns="http://www.w3.org/2000/svg">
<path d="M21.3187 22.4H14.3111H7.30343L3.11108 30.1459L8.04252 29.7245L10.301 34.2222L14.3111 26.7907L18.3212 34.2222L20.5796 29.7245L25.5111 30.1459L21.3187 22.4Z" fill="#FF7B4A"/>
<path d="M20.5797 29.7245L25.5111 30.1459L21.3187 22.4H14.3111V26.7907L18.3212 34.2222L20.5797 29.7245Z" fill="#FF435B"/>
<path d="M28 13.8163L25.0412 10.8188L26.1246 6.72454L22.0824 5.6279L20.9705 1.34963L16.9058 2.92843L14 0L11.0942 2.92843L7.02954 1.34963L5.9176 5.6279L1.87535 6.72454L2.95876 10.8188L0 13.8163L2.95876 16.8139L1.87535 20.9081L5.9176 22.0048L7.00003 26.1L11.0412 25.0024L14 28L16.9588 25.0024L21 26.1L22.0824 22.0048L26.1246 20.9081L25.0412 16.8139L28 13.8163Z" fill="#F9CC1C"/>
<path d="M21.1555 26.1L22.2139 22.0048L26.1663 20.9081L25.107 16.8139L28 13.8163L25.107 10.8188L26.1663 6.72454L22.2139 5.6279L21.1267 1.34963L17.1524 2.92843L14 0V28L17.2041 25.0024L21.1555 26.1Z" fill="#F6B21A"/>
<path d="M16.4522 11.469L15.0348 8.58692C14.8848 8.28195 14.5753 8.08887 14.2364 8.08887C13.8975 8.08887 13.588 8.28195 13.4381 8.58692L12.0206 11.469L8.85108 11.9312C8.51575 11.9802 8.23717 12.2159 8.13246 12.5393C8.02775 12.8627 8.11508 13.2178 8.35773 13.4551L10.6512 15.6987L10.1096 18.8667C10.0524 19.2019 10.1897 19.5406 10.4638 19.7405C10.738 19.9404 11.1014 19.9667 11.4014 19.8084L14.2364 18.3128L17.0713 19.8084C17.3712 19.9667 17.7347 19.9404 18.0089 19.7405C18.283 19.5406 18.4203 19.2019 18.3631 18.8667L17.8215 15.6987L20.1151 13.4551C20.3578 13.2178 20.4451 12.8627 20.3404 12.5393C20.2357 12.2159 19.9571 11.9802 19.6218 11.9312L16.4522 11.469Z" fill="#FF7B4A"/>
</svg>
