<svg width="17" height="16" viewBox="0 0 17 16" fill="none" xmlns="http://www.w3.org/2000/svg">
<g opacity="0.30412">
<path fill-rule="evenodd" clip-rule="evenodd" d="M1.51996 7.74292H3.39451C3.6903 7.74292 3.93009 7.98271 3.93009 8.2785V14.5716C3.93009 14.8674 3.6903 15.1072 3.39451 15.1072H1.51996C1.22416 15.1072 0.984375 14.8674 0.984375 14.5716V8.2785C0.984375 7.98271 1.22416 7.74292 1.51996 7.74292Z" stroke="black" stroke-width="1.47286" stroke-linecap="round" stroke-linejoin="round"/>
<path fill-rule="evenodd" clip-rule="evenodd" d="M13.3029 0.378662H15.1775C15.4733 0.378662 15.7131 0.618452 15.7131 0.914247V14.5717C15.7131 14.8675 15.4733 15.1073 15.1775 15.1073H13.3029C13.0071 15.1073 12.7673 14.8675 12.7673 14.5717V0.914247C12.7673 0.618452 13.0071 0.378662 13.3029 0.378662Z" stroke="black" stroke-width="1.47286" stroke-linecap="round" stroke-linejoin="round"/>
<path fill-rule="evenodd" clip-rule="evenodd" d="M7.41132 4.06079H9.28587C9.58166 4.06079 9.82145 4.31771 9.82145 4.63463V14.5334C9.82145 14.8503 9.58166 15.1072 9.28587 15.1072H7.41132C7.11552 15.1072 6.87573 14.8503 6.87573 14.5334V4.63463C6.87573 4.31771 7.11552 4.06079 7.41132 4.06079Z" stroke="black" stroke-width="1.47286" stroke-linecap="round" stroke-linejoin="round"/>
</g>
</svg>
