<svg width="35" height="34" viewBox="0 0 35 34" fill="none" xmlns="http://www.w3.org/2000/svg">
<path fill-rule="evenodd" clip-rule="evenodd" d="M3.46631 0.282959H31.2837C32.9193 0.282959 34.25 1.61368 34.25 3.24927V20.8409C34.25 22.4767 32.9193 23.8072 31.2837 23.8072H25.9446L28.2391 29.902C28.5169 30.6405 28.4884 31.4441 28.1583 32.1651C27.8251 32.8925 27.2274 33.4454 26.4753 33.7217C26.1346 33.8468 25.7849 33.906 25.4409 33.906C24.2274 33.906 23.0823 33.168 22.634 31.9771L21.2253 28.2358H13.5322L12.1237 31.9771C11.6754 33.168 10.5301 33.906 9.31679 33.906C8.97252 33.906 8.6231 33.8468 8.28244 33.7217C7.53031 33.4454 6.93267 32.8925 6.59947 32.1651C6.26937 31.4441 6.24079 30.6402 6.51862 29.902L8.81313 23.8072H3.46631C1.83072 23.8072 0.5 22.4767 0.5 20.8409V3.24927C0.5 1.61368 1.83072 0.282959 3.46631 0.282959ZM31.2837 21.8296C31.8288 21.8296 32.2725 21.3862 32.2725 20.8409V3.24927C32.2725 2.70416 31.8288 2.2605 31.2837 2.2605H3.46631C2.9212 2.2605 2.47754 2.70416 2.47754 3.24927V20.8409C2.47754 21.3862 2.9212 21.8296 3.46631 21.8296H22.5938V19.5539C22.5938 19.0078 23.0365 18.5652 23.5826 18.5652H29.3231C29.869 18.5652 30.3119 19.0078 30.3119 19.5539V21.8296H31.2837ZM26.3602 31.3416C26.2482 31.5863 26.0471 31.7722 25.7937 31.8651C25.2754 32.0554 24.6759 31.7876 24.4849 31.2804L21.6713 23.8072H23.8316L26.3883 30.5985C26.4792 30.8398 26.4691 31.1037 26.3602 31.3416ZM8.39747 31.3416C8.50948 31.5863 8.71058 31.7722 8.96395 31.8651C9.48228 32.0557 10.082 31.7876 10.273 31.2804L13.0864 23.8072H10.9263L8.3694 30.5988C8.27851 30.8398 8.28855 31.1037 8.39747 31.3416ZM28.3344 21.4655H24.5714V20.5427H28.3344V21.4655ZM19.5583 23.8072H15.1994L14.2769 26.258H20.4809L19.5583 23.8072Z" fill="white"/>
<rect x="9.6626" y="7.50098" width="15.4248" height="1.97754" rx="0.98877" fill="white"/>
<rect x="11.5083" y="13.3018" width="11.7334" height="1.97754" rx="0.98877" fill="white"/>
</svg>
