<svg width="102" height="21" viewBox="0 0 102 21" fill="none" xmlns="http://www.w3.org/2000/svg">
<path fill-rule="evenodd" clip-rule="evenodd" d="M9.69236 0.619385L12.6444 6.67982L19.2466 7.65161L14.4695 12.369L15.5969 19.0301L9.69236 15.8852L3.78751 19.0301L4.9153 12.369L0.138184 7.65161L6.73994 6.67982L9.69236 0.619385Z" fill="#F7D400" stroke="#F7D400" stroke-width="2" stroke-linecap="round" stroke-linejoin="round"/>
<path fill-rule="evenodd" clip-rule="evenodd" d="M30.1186 0.619385L33.0707 6.67982L39.6729 7.65161L34.8957 12.369L36.0231 19.0301L30.1186 15.8852L24.2138 19.0301L25.3416 12.369L20.5645 7.65161L27.1662 6.67982L30.1186 0.619385Z" fill="#F7D400" stroke="#F7D400" stroke-width="2" stroke-linecap="round" stroke-linejoin="round"/>
<path fill-rule="evenodd" clip-rule="evenodd" d="M49.886 0.619385L52.838 6.67982L59.4402 7.65161L54.6631 12.369L55.7905 19.0301L49.886 15.8852L43.9811 19.0301L45.1089 12.369L40.3318 7.65161L46.9335 6.67982L49.886 0.619385Z" fill="#F7D400" stroke="#F7D400" stroke-width="2" stroke-linecap="round" stroke-linejoin="round"/>
<path fill-rule="evenodd" clip-rule="evenodd" d="M70.3121 0.619385L73.2642 6.67982L79.8663 7.65161L75.0892 12.369L76.2166 19.0301L70.3121 15.8852L64.4073 19.0301L65.535 12.369L60.7579 7.65161L67.3597 6.67982L70.3121 0.619385Z" fill="#F7D400" stroke="#F7D400" stroke-width="2" stroke-linecap="round" stroke-linejoin="round"/>
<path fill-rule="evenodd" clip-rule="evenodd" d="M90.7384 0.619385L93.6905 6.67982L100.293 7.65161L95.5155 12.369L96.6429 19.0301L90.7384 15.8852L84.8335 19.0301L85.9613 12.369L81.1842 7.65161L87.786 6.67982L90.7384 0.619385Z" fill="#F7D400" stroke="#F7D400" stroke-width="2" stroke-linecap="round" stroke-linejoin="round"/>
</svg>
