<svg width="51" height="51" viewBox="0 0 51 51" fill="none" xmlns="http://www.w3.org/2000/svg">
<path d="M46.0676 38.7477C46.0676 40.5238 44.6418 41.9639 42.8831 41.9639C41.1245 41.9639 39.6986 40.5238 39.6986 38.7477C39.6986 36.9715 41.1245 35.5314 42.8831 35.5314C44.6418 35.5314 46.0676 36.9715 46.0676 38.7477Z" fill="#4BA3DD"/>
<path d="M3.87289 4.17261H13.4264V8.19296H3.87289V4.17261Z" fill="#4BA3DD"/>
<path d="M42.087 37.9435H43.6793V39.5516H42.087V37.9435Z" fill="black"/>
<path d="M3.87289 3.36853H13.4264V4.97667H3.87289V3.36853Z" fill="black"/>
<path d="M11.8342 6.58484H13.4264V8.19298H11.8342V6.58484Z" fill="black"/>
<path d="M3.87289 6.58484H10.2419V8.19298H3.87289V6.58484Z" fill="black"/>
<path d="M22.1838 36.3354H28.5528V37.9436H22.1838V36.3354Z" fill="black"/>
<path fill-rule="evenodd" clip-rule="evenodd" d="M18.2032 10.6051H32.5335C33.8501 10.6051 34.9219 11.6875 34.9219 13.0173V38.7476C34.9219 40.0773 33.8501 41.1598 32.5335 41.1598H18.2032C16.8865 41.1598 15.8148 40.0773 15.8148 38.7476V13.0173C15.8148 11.6875 16.8865 10.6051 18.2032 10.6051ZM32.5335 12.2132H18.2032C17.7647 12.2132 17.4071 12.5737 17.4071 13.0173V15.4295H33.3296V13.0173C33.3296 12.5737 32.972 12.2132 32.5335 12.2132ZM33.3296 17.0377V33.1191H17.4071V17.0377H33.3296ZM18.2032 39.5516H32.5335C32.972 39.5516 33.3296 39.1912 33.3296 38.7476V34.7272H17.4071V38.7476C17.4071 39.1912 17.7647 39.5516 18.2032 39.5516Z" fill="black"/>
<path fill-rule="evenodd" clip-rule="evenodd" d="M20.5916 18.6459H30.1451C31.0248 18.6459 31.7374 19.3655 31.7374 20.254V29.9029C31.7374 30.7913 31.0248 31.511 30.1451 31.511H20.5916C19.7119 31.511 18.9993 30.7913 18.9993 29.9029V20.254C18.9993 19.3655 19.7119 18.6459 20.5916 18.6459ZM27.7567 25.0784L22.9799 21.8622V28.2947L27.7567 25.0784Z" fill="#4BA3DD"/>
<path fill-rule="evenodd" clip-rule="evenodd" d="M29.1923 25.0784L22.1838 20.36V29.7968L29.1923 25.0784ZM26.3211 25.0784L23.7761 26.7925V23.3643L26.3211 25.0784Z" fill="black"/>
<path fill-rule="evenodd" clip-rule="evenodd" d="M37.6811 5.34963C33.9998 3.0018 29.7431 1.76036 25.3683 1.76036C22.3319 1.76036 19.3896 2.35124 16.6109 3.50356V5.24676C19.3496 4.01514 22.351 3.3685 25.3683 3.3685C29.4874 3.3685 33.4898 4.5487 36.9433 6.78188L36.0849 8.136C32.8876 6.0685 29.1826 4.97664 25.3683 4.97664C22.3319 4.97664 19.3169 5.69159 16.6109 7.03197V8.997C16.6109 10.3268 15.5392 11.4092 14.2225 11.4092H10.734L8.64965 15.6192L8.25392 14.8202C6.42843 17.9175 5.46514 21.4342 5.46514 25.0784C5.46514 31.0807 8.09143 36.7221 12.6699 40.5583L11.6542 41.7958C6.7087 37.6542 3.87289 31.5608 3.87289 25.0784C3.87289 20.8032 5.10673 16.6918 7.42436 13.1446L6.61152 11.5034C3.78542 15.4771 2.28063 20.155 2.28063 25.0784C2.28063 30.8243 4.36891 36.346 8.15907 40.6235L6.97304 41.6961C2.92088 37.1226 0.688377 31.2216 0.688377 25.0784C0.688377 20.1598 2.09365 15.4712 4.74287 11.4092H3.07676C1.76012 11.4092 0.688377 10.3268 0.688377 8.997V2.56443C0.688377 1.23465 1.76012 0.152222 3.07676 0.152222H14.2225C15.2815 0.152222 16.1705 0.855783 16.4826 1.82161C19.313 0.716013 22.2962 0.152222 25.3683 0.152222C30.044 0.152222 34.5953 1.47886 38.5316 3.99001L37.6811 5.34963ZM14.2225 9.80107C14.661 9.80107 15.0187 9.44065 15.0187 8.99699V2.56443C15.0187 2.12078 14.661 1.76036 14.2225 1.76036H3.07676C2.63827 1.76036 2.28063 2.12078 2.28063 2.56443V8.99699C2.28063 9.44065 2.63827 9.80107 3.07676 9.80107H7.54953L8.64965 12.0236L9.74977 9.80107H14.2225Z" fill="black"/>
<path fill-rule="evenodd" clip-rule="evenodd" d="M50.0483 25.0785C50.0483 20.3553 48.7347 15.7578 46.2484 11.7838L44.903 12.6428C47.2276 16.3589 48.456 20.66 48.456 25.0785C48.456 28.0706 47.9036 30.9602 46.8233 33.6947C46.3957 33.3508 45.93 33.0709 45.4387 32.8514C46.3806 30.3724 46.8638 27.7616 46.8638 25.0785C46.8638 20.8999 45.6855 16.8414 43.4557 13.3421L42.1165 14.2121C44.18 17.452 45.2715 21.2093 45.2715 25.0785C45.2715 27.6081 44.8089 30.0662 43.9055 32.3948C43.5366 32.3367 43.1603 32.3053 42.7747 32.3151C39.4448 32.3704 36.6373 35.1501 36.518 38.5105C36.483 39.494 36.6805 40.4516 37.0611 41.3255C33.648 43.8406 29.6254 45.1802 25.3683 45.1802C21.7515 45.1802 18.2086 44.1904 15.1252 42.3169L14.3053 43.6957C17.6364 45.7189 21.4616 46.7884 25.3683 46.7884C29.9173 46.7884 34.219 45.3706 37.8809 42.7111C38.2105 43.1347 38.5927 43.5199 39.0277 43.8544C35.0836 46.7805 30.2858 48.3965 25.3683 48.3965C22.7277 48.3965 20.1387 47.9501 17.6722 47.0706L17.1412 48.5861C19.7787 49.5268 22.5461 50.0046 25.3683 50.0046C30.5089 50.0046 35.5357 48.3643 39.6986 45.3667V46.7884C39.6986 48.5622 41.1268 50.0046 42.8831 50.0046C44.6394 50.0046 46.0676 48.5622 46.0676 46.7884V45.1704C46.0676 44.6608 46.2803 44.1999 46.6368 43.9372C48.2745 42.7295 49.2522 40.7892 49.2522 38.7477C49.2522 37.3637 48.8175 36.0532 48.0245 34.9605C49.3629 31.8408 50.0483 28.5232 50.0483 25.0785ZM42.8831 48.3965C42.005 48.3965 41.2909 47.6753 41.2909 46.7884H44.4754C44.4754 47.6753 43.7613 48.3965 42.8831 48.3965ZM44.4754 45.1704C44.4754 44.1492 44.9326 43.203 45.6984 42.6384C46.9268 41.7323 47.6599 40.2777 47.6599 38.7477C47.6599 37.4442 47.1526 36.222 46.2333 35.3088C45.3322 34.4128 44.145 33.9232 42.8832 33.9232C42.8559 33.9232 42.8291 33.9232 42.8019 33.924C40.3035 33.9648 38.1989 36.0492 38.1095 38.569C38.0531 40.1611 38.7785 41.6769 40.0489 42.6239C40.8267 43.2038 41.2909 44.1543 41.2909 45.168V45.1802H42.087V41.1599H43.6793V45.1802H44.4754V45.1704Z" fill="black"/>
<path fill-rule="evenodd" clip-rule="evenodd" d="M48.4323 4.23304C48.6846 4.68297 48.8805 5.16078 49.0174 5.65861L50.0483 6.0049V8.77281L49.0174 9.1191C48.8805 9.61693 48.6846 10.0928 48.4323 10.5439L48.9186 11.5266L46.9808 13.4846L46.0078 12.9934C45.5623 13.2482 45.0892 13.4461 44.5963 13.5843L44.2526 14.6255H41.5128L41.17 13.5843C40.6771 13.4461 40.2051 13.2482 39.7585 12.9934L38.7855 13.4846L36.8476 11.5266L37.334 10.5439C37.0817 10.0936 36.8857 9.61693 36.7489 9.1191L35.718 8.77203V6.0049L36.7489 5.65861C36.8857 5.16078 37.0817 4.68415 37.334 4.23304L36.8476 3.25033L38.7855 1.29315L39.7585 1.78431C40.204 1.52951 40.6771 1.33163 41.17 1.19343L41.5136 0.152222H44.2534L44.5971 1.19343C45.09 1.33163 45.5623 1.52951 46.0086 1.78431L46.9808 1.29315L48.9186 3.25033L48.4323 4.23304ZM40.4948 7.38885C40.4948 8.72138 41.5638 9.80107 42.8831 9.80107C44.2025 9.80107 45.2715 8.72138 45.2715 7.38885C45.2715 6.05633 44.2025 4.97664 42.8831 4.97664C41.5638 4.97664 40.4948 6.05633 40.4948 7.38885Z" fill="#4BA3DD"/>
<path fill-rule="evenodd" clip-rule="evenodd" d="M39.6986 7.38889C39.6986 9.16271 41.1268 10.6052 42.8831 10.6052C44.6394 10.6052 46.0676 9.16271 46.0676 7.38889C46.0676 5.61507 44.6394 4.17261 42.8831 4.17261C41.1268 4.17261 39.6986 5.61507 39.6986 7.38889ZM41.2909 7.38889C41.2909 6.50198 42.005 5.78075 42.8831 5.78075C43.7613 5.78075 44.4754 6.50198 44.4754 7.38889C44.4754 8.2758 43.7613 8.99703 42.8831 8.99703C42.005 8.99703 41.2909 8.2758 41.2909 7.38889Z" fill="black"/>
<path d="M15.0187 50.0046H3.87289C2.11659 50.0046 0.688377 48.5621 0.688377 46.7883C0.688377 45.2693 1.73602 43.9925 3.14051 43.6572C3.47638 41.7821 5.10517 40.3557 7.0574 40.3557C7.92272 40.3557 8.75966 40.6474 9.44578 41.1751C10.1319 40.6474 10.9688 40.3557 11.8342 40.3557C13.7864 40.3557 15.4152 41.7821 15.751 43.6572C17.1555 43.9925 18.2032 45.2693 18.2032 46.7883C18.2032 48.5621 16.775 50.0046 15.0187 50.0046Z" fill="#4BA3DD"/>
</svg>
