<svg width="33" height="33" viewBox="0 0 33 33" fill="none" xmlns="http://www.w3.org/2000/svg">
<path fill-rule="evenodd" clip-rule="evenodd" d="M16.4515 0.919189C25.2008 0.919189 32.2932 8.00795 32.2932 16.7527C32.2932 25.4969 25.2008 32.5857 16.4515 32.5857C7.70278 32.5857 0.610352 25.4969 0.610352 16.7527C0.610352 8.00795 7.70278 0.919189 16.4515 0.919189Z" fill="#0D78BF"/>
<path fill-rule="evenodd" clip-rule="evenodd" d="M20.2804 14.0277H17.8656V12.4639C18.0423 10.9857 20.5498 11.2661 20.5498 11.2661L20.5503 11.165L20.5498 11.1537V8.72557H20.5493V8.72506H20.5477C20.4614 8.70496 15.5592 7.57207 14.586 11.2052C14.586 11.2058 14.586 11.2068 14.5844 11.2083C14.5828 11.2161 14.5802 11.2238 14.578 11.2315C14.4251 11.6861 14.4357 13.7664 14.4378 14.0277H12.3447V16.8094H14.5675V24.3757H17.8042V16.8094H20.2799L20.5588 14.0277H20.2804Z" fill="white"/>
</svg>
