<svg width="112" height="111" viewBox="0 0 112 111" fill="none" xmlns="http://www.w3.org/2000/svg">
<path opacity="0.198969" fill-rule="evenodd" clip-rule="evenodd" d="M98.8124 42.0476C110.366 64.2827 78.253 93.9765 49.3844 93.9765C20.5158 93.9765 6.29909 57.6079 24.793 27.02C43.2869 -3.56799 87.259 19.8124 98.8124 42.0476Z" fill="#C6CEE4"/>
<path d="M81.2481 47.9706H85.4729V66.7828H81.2481V47.9706Z" fill="#FFD422"/>
<path d="M81.2481 47.9706H85.4729V66.7828H81.2481V47.9706Z" fill="#EB7EEA"/>
<path d="M30.4063 49.9641V72.8683L53.7145 83.1366L77.0227 72.8683V49.9641L30.4063 49.9641Z" fill="url(#paint0_linear_1_439)"/>
<path d="M53.7132 49.9641V83.1361L53.7145 83.1366L77.0227 72.8683V49.9641L53.7132 49.9641Z" fill="#2188CC"/>
<path d="M53.7132 29.7427L17.6465 47.1956L53.7132 64.6486L89.78 47.1956L53.7132 29.7427Z" fill="url(#paint1_linear_1_439)"/>
<defs>
<linearGradient id="paint0_linear_1_439" x1="47.7087" y1="43.8079" x2="38.3901" y2="79.0891" gradientUnits="userSpaceOnUse">
<stop stop-color="#91CBF1"/>
<stop offset="1" stop-color="#2C92D6"/>
</linearGradient>
<linearGradient id="paint1_linear_1_439" x1="41.3123" y1="31.8847" x2="35.9888" y2="64.5624" gradientUnits="userSpaceOnUse">
<stop stop-color="#91CBF1"/>
<stop offset="1" stop-color="#2C92D6"/>
<stop offset="1" stop-color="#2C92D6"/>
</linearGradient>
</defs>
</svg>
