<svg width="29" height="36" viewBox="0 0 29 36" fill="none" xmlns="http://www.w3.org/2000/svg">
<path d="M23.5409 13.1152C17.6241 6.38463 16.28 1.1499 16.28 1.1499C16.28 1.1499 15.2552 1.6209 14.1017 2.70002L12.6495 19.8457L14.1017 34.4986H14.1018C21.2385 34.4985 27.024 28.5399 27.024 21.1895C27.0239 18.1534 25.3776 15.2045 23.5409 13.1152Z" fill="#FF6200"/>
<path d="M12.2421 5.22055C11.5176 6.73684 11.3469 8.44633 11.3539 9.75819C11.3605 11.0308 10.5037 12.1291 9.31118 12.3787C8.47798 12.5531 7.61666 12.2802 7.01581 11.6515L5.84517 10.4266C5.84517 10.4266 4.10973 12.9304 3.81234 13.4015C2.47652 15.5173 1.70582 18.0581 1.72527 20.7884C1.77712 28.0802 7.40549 33.9236 14.3744 33.9236V2.2998C13.6358 3.00179 12.8433 3.96245 12.2421 5.22055Z" fill="#FD7D21"/>
<path d="M24.3736 12.6358C21.4004 9.30046 19.6336 6.36439 18.6748 4.48859C17.6364 2.45683 17.2961 1.19694 17.2935 1.18692L16.9844 0L15.8805 0.500125C15.8176 0.528602 15.0619 0.878474 14.1057 1.63072L13.3745 2.93927L14.1057 4.47919C14.6772 3.82812 15.2666 3.34143 15.7406 3.00451C16.5139 5.0025 18.4744 9.13029 22.8491 14.0378C23.8237 15.1311 26.0905 18.0327 26.0905 21.3555C26.0905 28.0677 20.7141 33.5284 14.1058 33.5284H14.1057L13.3745 34.8745L14.1057 35.6172H14.1058C21.8481 35.6172 28.147 29.2194 28.147 21.3555C28.147 18.5041 26.7717 15.326 24.3736 12.6358Z" fill="#FFB62D"/>
<path d="M5.65528 30.0036C3.40013 27.7306 2.14512 24.6921 2.12134 21.4482C2.10351 19.0198 2.78709 16.6707 4.0981 14.6551C4.25817 14.409 4.90027 13.4992 5.45765 12.714L5.80856 13.0704C6.67173 13.9471 7.90138 14.3254 9.09866 14.0822C10.8047 13.7356 12.0362 12.202 12.0266 10.4355C12.0207 9.34235 12.1556 7.7509 12.8318 6.37703C13.1986 5.6319 13.6464 5.00254 14.1057 4.47916V1.63062C13.0986 2.42303 11.8691 3.66196 10.9924 5.44286C10.1345 7.18567 9.96294 9.12609 9.97014 10.4469C9.97432 11.2156 9.43812 11.883 8.69525 12.0339C8.17441 12.1396 7.63863 11.9751 7.2627 11.5933L5.20641 9.50471L4.49905 10.4954C4.42563 10.5983 2.69695 13.0198 2.38224 13.5036C0.845422 15.8665 0.0440763 18.6191 0.0648469 21.4636C0.092678 25.2628 1.56362 28.8222 4.20669 31.4862C6.84955 34.15 10.3651 35.6171 14.1057 35.6171V33.5283C10.9115 33.5283 7.91036 32.2765 5.65528 30.0036Z" fill="#FDCB02"/>
<path d="M14.3591 14.9524C14.3515 14.9524 14.344 14.9527 14.3364 14.9527L12.6312 22.9906L14.3364 31.0286C14.344 31.0286 14.3515 31.0289 14.3591 31.0289C18.7797 31.0289 22.3633 27.43 22.3633 22.9906C22.3633 18.5513 18.7797 14.9524 14.3591 14.9524Z" fill="#ED3800"/>
<path d="M6.35486 22.9906C6.35486 27.4224 9.92619 31.0163 14.3363 31.0286V14.9526C9.92626 14.965 6.35486 18.5588 6.35486 22.9906Z" fill="#FF4B00"/>
<path d="M19.0731 18.0054H16.7786L14.6579 21.263L13.9449 24.257L14.6579 24.7877L19.0731 18.0054Z" fill="#D9E7EC"/>
<path fill-rule="evenodd" clip-rule="evenodd" d="M15.6381 25.3399C15.6381 23.5739 16.7243 22.5627 18.1634 22.5627C19.6026 22.5627 20.6888 23.5739 20.6888 25.3399C20.6888 27.1201 19.6026 28.117 18.1634 28.117C16.7242 28.117 15.6381 27.1201 15.6381 25.3399ZM17.5661 25.3398C17.5661 26.294 17.8647 26.5789 18.1634 26.5789C18.4621 26.5789 18.7608 26.294 18.7608 25.3398C18.7608 24.3856 18.4621 24.1008 18.1634 24.1008C17.8647 24.1008 17.5661 24.3856 17.5661 25.3398Z" fill="#D9E7EC"/>
<path d="M12.5832 27.9748L14.6579 24.7879V21.2632L10.2887 27.9748H12.5832Z" fill="#FAFCFD"/>
<path fill-rule="evenodd" clip-rule="evenodd" d="M11.1983 17.863C12.6376 17.863 13.7237 18.8743 13.7237 20.6402C13.7237 22.4204 12.6376 23.4174 11.1983 23.4174C9.75913 23.4174 8.67297 22.4204 8.67297 20.6402C8.67297 18.8742 9.75913 17.863 11.1983 17.863ZM11.1983 19.4011C10.8997 19.4011 10.601 19.686 10.601 20.6402C10.601 21.5944 10.8997 21.8793 11.1983 21.8793C11.497 21.8793 11.7957 21.5944 11.7957 20.6402C11.7957 19.686 11.497 19.4011 11.1983 19.4011Z" fill="#FAFCFD"/>
</svg>
