<svg width="51" height="51" viewBox="0 0 51 51" fill="none" xmlns="http://www.w3.org/2000/svg">
<path d="M22.2027 37.1394H17.3546V34.7272H14.9306V29.9028H17.3546V27.4906H22.2027V29.9028H24.6267V34.7272H22.2027V37.1394Z" fill="#4BA3DD"/>
<path d="M18.9707 41.9639H20.5867V43.572H18.9707V41.9639Z" fill="black"/>
<path d="M18.9707 45.1802H20.5867V46.7883H18.9707V45.1802Z" fill="black"/>
<path fill-rule="evenodd" clip-rule="evenodd" d="M37.5549 7.38877C37.5549 8.71871 36.4673 9.80098 35.1309 9.80098C33.7944 9.80098 32.7068 8.71871 32.7068 7.38877C32.7068 6.05884 33.7944 4.97656 35.1309 4.97656C36.4673 4.97656 37.5549 6.05884 37.5549 7.38877ZM35.9389 7.38877C35.9389 6.94493 35.5769 6.5847 35.1309 6.5847C34.6849 6.5847 34.3229 6.94493 34.3229 7.38877C34.3229 7.83262 34.6849 8.19284 35.1309 8.19284C35.5769 8.19284 35.9389 7.83262 35.9389 7.38877Z" fill="black"/>
<path fill-rule="evenodd" clip-rule="evenodd" d="M39.9789 14.6255C39.9789 13.2955 41.0665 12.2133 42.403 12.2133C43.7394 12.2133 44.827 13.2955 44.827 14.6255C44.827 15.9554 43.7394 17.0377 42.403 17.0377C41.0665 17.0377 39.9789 15.9554 39.9789 14.6255ZM41.595 14.6255C41.595 15.0693 41.9569 15.4295 42.403 15.4295C42.849 15.4295 43.211 15.0693 43.211 14.6255C43.211 14.1816 42.849 13.8214 42.403 13.8214C41.9569 13.8214 41.595 14.1816 41.595 14.6255Z" fill="black"/>
<path fill-rule="evenodd" clip-rule="evenodd" d="M47.251 36.0024V34.7271C47.251 33.3972 46.1634 32.3149 44.827 32.3149H44.019V29.9027C44.019 28.5728 42.9314 27.4905 41.595 27.4905C40.2585 27.4905 39.1709 28.5728 39.1709 29.9027V32.3149H38.3629C38.0785 32.3149 37.8086 32.3728 37.5549 32.4629V30.558C38.493 30.2251 39.1709 29.3407 39.1709 28.2938V27.8226L49.6751 17.3697C50.1962 16.851 50.4831 16.1619 50.4831 15.4286C50.4831 14.6953 50.1962 14.0054 49.6751 13.4876L37.0814 0.956168C36.0399 -0.0802787 34.2219 -0.0802787 33.1803 0.956168L20.2522 13.8213H10.8906C7.77246 13.8213 5.2345 16.3469 5.2345 19.4498V24.2742H2.81047C1.47403 24.2742 0.386444 25.3565 0.386444 26.6864V28.2946C0.386444 29.3415 1.06436 30.2259 2.00246 30.5588V45.9841C2.00246 48.2009 3.81483 50.0045 6.04251 50.0045H36.7469H46.443C48.6707 50.0045 50.4831 48.2009 50.4831 45.9841V40.8839C50.4831 39.8096 50.0621 38.7997 49.2993 38.0407L47.251 36.0024ZM38.3629 33.9232H40.7869V29.9028C40.7869 29.459 41.1489 29.0987 41.595 29.0987C42.041 29.0987 42.403 29.459 42.403 29.9028V33.9232H44.827C45.273 33.9232 45.635 34.2834 45.635 34.7272V35.5313H37.5549V34.7272C37.5549 34.2834 37.9169 33.9232 38.3629 33.9232ZM23.8187 48.3964H33.5359C33.0228 47.7226 32.7068 46.8928 32.7068 45.9842V40.884C32.7068 39.8098 33.1278 38.7998 33.8906 38.0408L35.9389 36.0025V34.7272V30.7069H27.8588V37.9435C27.8588 39.2734 26.7712 40.3557 25.4348 40.3557H23.8187V48.3964ZM29.4748 24.2743H10.0826V20.254C10.0826 19.8101 10.4446 19.4499 10.8906 19.4499H28.6668C29.1128 19.4499 29.4748 19.8101 29.4748 20.254V24.2743ZM26.2428 25.8824H13.3146V37.9435C13.3146 38.3873 13.6766 38.7476 14.1226 38.7476H25.4348C25.8808 38.7476 26.2428 38.3873 26.2428 37.9435V25.8824ZM22.2027 40.3557V48.3964H17.3547V40.3557H22.2027ZM36.7469 29.0987C37.1929 29.0987 37.5549 28.7385 37.5549 28.2947V26.6865C37.5549 26.2427 37.1929 25.8824 36.7469 25.8824H27.8588V29.0987H36.7469ZM34.0263 17.6657L35.5349 16.1645L42.0685 22.6662L38.977 25.7425C38.6069 24.8806 37.7472 24.2743 36.7469 24.2743H34.3229V19.4499C34.3229 18.8259 34.2162 18.2269 34.0263 17.6657ZM48.5325 16.2336C48.7483 16.0181 48.8671 15.7335 48.8671 15.4295C48.8671 15.1256 48.7483 14.8409 48.5325 14.6254L42.807 8.92781L36.6774 15.0275L43.211 21.5292L48.5325 16.2336ZM34.3229 2.09321C34.7551 1.66464 35.5066 1.66464 35.9389 2.09321L41.6644 7.79085L35.5349 13.8905L29.0013 7.38882L34.3229 2.09321ZM34.3923 15.0275L27.8588 8.52577L22.5372 13.8214H28.6668C30.5527 13.8214 32.2212 14.7485 33.2498 16.1644L34.3923 15.0275ZM6.85052 19.4499C6.85052 17.2331 8.66289 15.4295 10.8906 15.4295H28.6668C30.8945 15.4295 32.7068 17.2331 32.7068 19.4499V24.2743H31.0908V20.254C31.0908 18.924 30.0032 17.8417 28.6668 17.8417H10.8906C9.55412 17.8417 8.46654 18.924 8.46654 20.254V24.2743H6.85052V19.4499ZM2.81047 25.8824C2.36445 25.8824 2.00246 26.2427 2.00246 26.6865V28.2947C2.00246 28.7385 2.36445 29.0987 2.81047 29.0987H11.6986V25.8824H2.81047ZM3.61848 45.9842V30.7069H11.6986V37.9435C11.6986 39.2734 12.7862 40.3557 14.1226 40.3557H15.7386V48.3964H6.04251C4.70607 48.3964 3.61848 47.3141 3.61848 45.9842ZM46.443 48.3964C47.7795 48.3964 48.867 47.3141 48.867 45.9842V40.884C48.867 40.2391 48.6149 39.6337 48.1568 39.1778L46.1085 37.1394H37.0814L35.0331 39.1778C34.575 39.6329 34.3229 40.2391 34.3229 40.884V45.9842C34.3229 47.3141 35.4104 48.3964 36.7469 48.3964H46.443Z" fill="black"/>
<path d="M45.635 46.7883H37.5549C36.6637 46.7883 35.9389 46.067 35.9389 45.1801V40.3557C35.9389 39.4688 36.6637 38.7476 37.5549 38.7476H45.635C46.5263 38.7476 47.251 39.4688 47.251 40.3557V45.1801C47.251 46.067 46.5263 46.7883 45.635 46.7883Z" fill="#4BA3DD"/>
</svg>
