<svg width="49" height="49" viewBox="0 0 49 49" fill="none" xmlns="http://www.w3.org/2000/svg">
<path d="M21.5031 21.0612H18.1489C18.283 21.29 18.3661 21.5531 18.3661 21.837V24.9404H20.7189C21.1518 24.9404 21.5031 25.288 21.5031 25.7163V44.3369C21.5031 44.7652 21.1518 45.1127 20.7189 45.1127H5.03396C4.60106 45.1127 4.24972 44.7652 4.24972 44.3369V25.7163C4.24972 25.288 4.60106 24.9404 5.03396 24.9404H7.3867V21.837C7.3867 21.5531 7.46983 21.29 7.60393 21.0612H4.24972C2.08755 21.0612 0.328491 22.8014 0.328491 24.9404V45.1127C0.328491 47.2518 2.08755 48.992 4.24972 48.992H21.5031C23.6653 48.992 25.4243 47.2518 25.4243 45.1127V24.9404C25.4243 22.8014 23.6653 21.0612 21.5031 21.0612Z" fill="#4BA3DD"/>
<path d="M12.8764 42.7851C10.2813 42.7851 8.17093 40.6973 8.17093 38.13C8.17093 35.5627 10.2813 33.4749 12.8764 33.4749C15.4715 33.4749 17.5819 35.5627 17.5819 38.13C17.5819 40.6973 15.4715 42.7851 12.8764 42.7851Z" fill="#4BA3DD"/>
<path d="M32.4825 26.4922H37.188V29.5956H32.4825V26.4922Z" fill="#4BA3DD"/>
<path fill-rule="evenodd" clip-rule="evenodd" d="M48.9517 12.5268V11.5957C48.9517 11.0806 48.8505 10.5786 48.6498 10.1038L44.7693 0.888916H13.9218L10.0406 10.1038C9.84061 10.5786 9.73944 11.0806 9.73944 11.5957V12.5268C9.73944 13.7891 10.3614 14.9017 11.3079 15.61V19.5095H8.9552C7.65806 19.5095 6.60246 20.5538 6.60246 21.8371V24.1646H5.03397C4.16895 24.1646 3.46548 24.8606 3.46548 25.7164V44.3369C3.46548 45.1927 4.16895 45.8886 5.03397 45.8886H20.7189C21.5839 45.8886 22.2874 45.1927 22.2874 44.3369V25.7164C22.2874 24.8606 21.5839 24.1646 20.7189 24.1646H19.1504V21.8371C19.1504 20.8269 18.4924 19.9735 17.5819 19.6523V15.61C18.2391 16.1027 19.0484 16.4061 19.9346 16.4061C21.2216 16.4061 22.3564 15.7807 23.0716 14.8303C23.7868 15.7807 24.9216 16.4061 26.2086 16.4061C27.4955 16.4061 28.6303 15.7807 29.3456 14.8303C30.0608 15.7807 31.1956 16.4061 32.4825 16.4061C33.7695 16.4061 34.9043 15.7807 35.6195 14.8303C36.3348 15.7807 37.4696 16.4061 38.7565 16.4061C39.6427 16.4061 40.452 16.1027 41.1092 15.61V25.8591C40.863 25.7722 40.6011 25.7164 40.325 25.7164H29.3456C28.0484 25.7164 26.9928 26.7607 26.9928 28.0439V35.8025C26.9928 36.0756 27.0493 36.3347 27.1371 36.5784H25.4243V38.1301H29.3456H40.325H46.599C47.0311 38.1301 47.3832 38.4777 47.3832 38.9059V41.2335H25.4243V42.7852H48.9517V38.9059C48.9517 37.8958 48.2937 37.0423 47.3832 36.7211V15.61C48.3298 14.9017 48.9517 13.7891 48.9517 12.5268ZM45.0305 14.8543C43.7333 14.8543 42.6777 13.81 42.6777 12.5268V11.7509H47.3832V12.5268C47.3832 13.81 46.3276 14.8543 45.0305 14.8543ZM43.7239 2.44063H14.968L11.7001 10.1992H46.9911L43.7239 2.44063ZM11.3079 12.5268V11.7509H16.0134V12.5268C16.0134 13.81 14.9578 14.8543 13.6607 14.8543C12.3635 14.8543 11.3079 13.81 11.3079 12.5268ZM13.6607 16.4061C13.3925 16.4061 13.1297 16.3789 12.8764 16.3277V19.5095H16.0134V15.61C15.3562 16.1027 14.5469 16.4061 13.6607 16.4061ZM8.17095 21.8371C8.17095 21.4088 8.52308 21.0612 8.9552 21.0612H16.7976C17.2298 21.0612 17.5819 21.4088 17.5819 21.8371V24.9405C17.5819 25.3688 17.2298 25.7163 16.7976 25.7163H8.9552C8.52308 25.7163 8.17095 25.3688 8.17095 24.9405V21.8371ZM5.03397 25.7163V44.3369H20.7189V25.7163H19.0061C18.6814 26.6171 17.8187 27.2681 16.7976 27.2681H8.9552C7.93411 27.2681 7.07144 26.6171 6.74677 25.7163H5.03397ZM19.9346 14.8543C18.6375 14.8543 17.5819 13.81 17.5819 12.5268V11.7509H22.2874V12.5268C22.2874 13.81 21.2318 14.8543 19.9346 14.8543ZM23.8559 12.5268C23.8559 13.81 24.9114 14.8543 26.2086 14.8543C27.5057 14.8543 28.5613 13.81 28.5613 12.5268V11.7509H23.8559V12.5268ZM32.4825 14.8543C31.1854 14.8543 30.1298 13.81 30.1298 12.5268V11.7509H34.8353V12.5268C34.8353 13.81 33.7797 14.8543 32.4825 14.8543ZM36.4038 12.5268C36.4038 13.81 37.4594 14.8543 38.7565 14.8543C40.0536 14.8543 41.1092 13.81 41.1092 12.5268V11.7509H36.4038V12.5268ZM29.3456 36.5784C28.9134 36.5784 28.5613 36.2308 28.5613 35.8025V28.0439C28.5613 27.6156 28.9134 27.2681 29.3456 27.2681H40.325C40.7571 27.2681 41.1092 27.6156 41.1092 28.0439V35.8025C41.1092 36.2308 40.7571 36.5784 40.325 36.5784H29.3456ZM42.6777 36.5784H45.8147V16.3277C45.5614 16.3789 45.2987 16.4061 45.0305 16.4061C44.1443 16.4061 43.3349 16.1027 42.6777 15.61V28.0439V35.8025V36.5784Z" fill="black"/>
<path d="M12.8764 37.8089L11.8624 36.8057L10.7535 37.9028L12.8764 40.003L18.9206 34.0235L17.8117 32.9264L12.8764 37.8089Z" fill="black"/>
<path d="M17.5819 28.8198H19.1504V30.3715H17.5819V28.8198Z" fill="black"/>
<path d="M6.60245 28.8198H16.0134V30.3715H6.60245V28.8198Z" fill="black"/>
<path d="M16.0621 8.92056L17.3412 5.54402H23.8559V3.99231H16.2542L14.5924 8.37435L16.0621 8.92056Z" fill="black"/>
<path d="M25.4243 3.99231H26.9928V5.54402H25.4243V3.99231Z" fill="black"/>
</svg>
