<svg width="33" height="33" viewBox="0 0 33 33" fill="none" xmlns="http://www.w3.org/2000/svg">
<path fill-rule="evenodd" clip-rule="evenodd" d="M16.7753 0.919189C25.5607 0.919189 32.6824 8.00795 32.6824 16.7527C32.6824 25.4969 25.5607 32.5857 16.7753 32.5857C7.99039 32.5857 0.868652 25.4969 0.868652 16.7527C0.868652 8.00795 7.99039 0.919189 16.7753 0.919189Z" fill="#1C1D20" fill-opacity="0.304797"/>
<path fill-rule="evenodd" clip-rule="evenodd" d="M9.43204 24.3757H12.7165V13.8206H9.43204V24.3757ZM11.0585 12.4379C9.98609 12.4379 9.1167 11.5663 9.1167 10.4902C9.1167 9.41512 9.98609 8.54248 11.0585 8.54248C12.1313 8.54248 13.0007 9.41512 13.0007 10.4902C13.0007 11.5663 12.1313 12.4379 11.0585 12.4379ZM25.0236 24.3752H21.7552C21.7552 24.3752 21.7552 20.3546 21.7552 18.8344C21.7552 17.3153 21.1748 16.4668 19.9672 16.4668C18.6525 16.4668 17.9665 17.3503 17.9665 18.8344C17.9665 20.4607 17.9665 24.3752 17.9665 24.3752H14.8161V13.8206H17.9665V15.2418C17.9665 15.2418 18.913 13.4981 21.1634 13.4981C23.4127 13.4981 25.0236 14.8653 25.0236 17.6923C25.0236 20.5194 25.0236 24.3752 25.0236 24.3752Z" fill="white"/>
</svg>
