<svg width="49" height="51" viewBox="0 0 49 51" fill="none" xmlns="http://www.w3.org/2000/svg">
<path d="M45.7517 3.36853H25.3133C23.9768 3.36853 22.8938 4.44821 22.8938 5.78074V22.6128C22.8938 23.9454 23.9768 25.025 25.3133 25.025H34.1849L34.192 16.5253C34.192 15.6368 34.9139 14.9171 35.805 14.9171C36.6962 14.9171 37.418 15.6368 37.418 16.5253L37.411 25.025H45.7517C47.0883 25.025 48.1712 23.9454 48.1712 22.6128V5.78074C48.1712 4.44821 47.0883 3.36853 45.7517 3.36853Z" fill="#4BA3DD"/>
<path d="M22.8938 9.80103H3.5376V40.3557H26.1199V25.025H25.3134C25.0286 25.025 24.7601 24.9673 24.5068 24.877V38.7476H5.15062V11.4092H22.8938V9.80103Z" fill="black"/>
<path fill-rule="evenodd" clip-rule="evenodd" d="M44.5758 27.6677C44.855 27.5558 45.1575 27.4906 45.4761 27.4906C46.8099 27.4906 47.8956 28.573 47.8956 29.9028V40.8359C47.8956 41.7444 47.5809 42.636 47.0115 43.3463L45.2004 45.6046C44.8574 46.0317 44.6696 46.5673 44.6696 47.1122V50.0046H31.7654V47.1122C31.7654 46.5673 31.5776 46.0325 31.2346 45.6054L29.3459 43.252V45.9842C29.3459 48.2009 27.5367 50.0046 25.3133 50.0046H4.3441C2.12069 50.0046 0.311554 48.2009 0.311554 45.9842V4.17257C0.311554 1.95588 2.12069 0.152222 4.3441 0.152222H25.3133C27.2603 0.152222 28.8895 1.53618 29.2644 3.3685H27.5844C27.2505 2.43487 26.3632 1.76036 25.3133 1.76036H4.3441C3.01029 1.76036 1.92457 2.84279 1.92457 4.17257V6.58478H22.8938V8.19292H1.92457V41.9639H27.7329V37.2054L26.961 32.5899C26.9386 32.4501 26.9264 32.3095 26.9264 32.1694V31.6558C26.9264 30.9256 27.2386 30.2703 27.7329 29.8039V25.025H29.3459V29.1133C29.3678 29.1122 29.3893 29.1092 29.4108 29.1062L29.4108 29.1062C29.4375 29.1025 29.4643 29.0988 29.492 29.0988C30.7325 29.0988 31.793 29.9825 32.0147 31.1988L33.2453 37.9435H33.3784L33.3855 19.2649L30.1595 21.1416V7.08447L42.2441 14.113C42.2441 14.113 38.2167 16.4314 38.2175 16.4553L44.5758 27.6677ZM39.0441 14.113L31.7725 9.88458V18.3415L33.3855 17.4031V16.5252C33.3855 15.1955 34.4712 14.113 35.805 14.113C36.5292 14.113 37.1727 14.4385 37.6173 14.943L39.0441 14.113ZM25.3133 48.3964H4.3441C3.01029 48.3964 1.92457 47.314 1.92457 45.9842V43.572H27.7329V45.9842C27.7329 47.314 26.6471 48.3964 25.3133 48.3964ZM45.7517 42.3435C46.0947 41.9164 46.2826 41.3808 46.2826 40.8359V29.9028C46.2826 29.46 45.9211 29.0988 45.4761 29.0988C45.0311 29.0988 44.6696 29.46 44.6696 29.9028V37.9435H43.0565V28.2947C43.0565 27.8518 42.695 27.4906 42.25 27.4906C41.805 27.4906 41.4435 27.8518 41.4435 28.2947V37.9435H39.8305V26.6865C39.8305 26.2437 39.469 25.8825 39.024 25.8825C38.579 25.8825 38.2175 26.2437 38.2175 26.6865V37.9435H36.6045L36.6115 16.5252C36.6115 16.0824 36.25 15.7212 35.805 15.7212C35.36 15.7212 34.9985 16.0824 34.9985 16.5252L34.9914 39.5517H31.8985L30.428 31.4862C30.3461 31.0351 29.9515 30.7069 29.492 30.7069C28.9659 30.7069 28.5394 31.1321 28.5394 31.6558V32.1694C28.5394 32.2224 28.5433 32.2758 28.5516 32.3272L30.0031 41.0047C30.0709 41.4115 30.2426 41.7951 30.4993 42.115L32.4943 44.6003C33.0638 45.3113 33.3784 46.2037 33.3784 47.1122V48.3964H43.0565V47.1122C43.0565 46.2037 43.3712 45.3121 43.9406 44.6018L45.7517 42.3435Z" fill="black"/>
<path d="M8.37665 3.36853H9.98967V4.97667H8.37665V3.36853Z" fill="black"/>
<path d="M11.6027 3.36853H18.0548V4.97667H11.6027V3.36853Z" fill="black"/>
<path d="M19.6678 3.36853H21.2808V4.97667H19.6678V3.36853Z" fill="black"/>
<path d="M12.4092 45.1802H17.2482V46.7883H12.4092V45.1802Z" fill="black"/>
<path fill-rule="evenodd" clip-rule="evenodd" d="M8.37665 30.7069C8.37665 29.3771 9.46236 28.2947 10.7962 28.2947C11.0801 28.2947 11.3495 28.3524 11.6027 28.4427V16.9309L18.9613 17.8481L18.7612 19.4436L13.2157 18.7526V30.7069C13.2157 32.0367 12.13 33.1191 10.7962 33.1191C9.46236 33.1191 8.37665 32.0367 8.37665 30.7069ZM9.98967 30.7069C9.98967 31.1498 10.3512 31.511 10.7962 31.511C11.2412 31.511 11.6027 31.1498 11.6027 30.7069C11.6027 30.264 11.2412 29.9028 10.7962 29.9028C10.3512 29.9028 9.98967 30.264 9.98967 30.7069Z" fill="black"/>
</svg>
