<svg width="30" height="30" viewBox="0 0 30 30" fill="none" xmlns="http://www.w3.org/2000/svg">
<path d="M27.9561 15.0011L29.2417 11.648C29.3827 11.2781 29.2728 10.8587 28.9633 10.6078L26.176 8.34806L25.612 4.80089C25.5497 4.409 25.242 4.10318 24.8501 4.04091L21.3028 3.47688L19.0448 0.687859C18.7957 0.378375 18.3672 0.268499 18.0064 0.409506L14.6514 1.69689L11.2982 0.411338C10.9265 0.268499 10.5107 0.382037 10.2598 0.68969L7.99997 3.47871L4.45266 4.04274C4.06259 4.10501 3.75492 4.41266 3.69266 4.80272L3.1286 8.34989L0.339472 10.6097C0.0318066 10.8587 -0.0799053 11.2781 0.061108 11.648L1.34671 15.0011L0.061108 18.3541C-0.0817366 18.724 0.0318066 19.1434 0.339472 19.3924L3.1286 21.6504L3.69266 25.1976C3.75492 25.5894 4.06076 25.8971 4.45266 25.9594L7.99997 26.5234L10.2598 29.3106C10.5107 29.6219 10.9301 29.7318 11.3 29.5889L14.6514 28.3052L18.0046 29.5908C18.1108 29.6311 18.2207 29.6512 18.3324 29.6512C18.6016 29.6512 18.8671 29.5322 19.0448 29.3106L21.3028 26.5234L24.8501 25.9594C25.242 25.8971 25.5497 25.5894 25.612 25.1976L26.176 21.6504L28.9633 19.3924C29.2728 19.1416 29.3827 18.724 29.2417 18.3541L27.9561 15.0011Z" fill="#2196F3"/>
<path d="M10.2326 10.814C9.7191 10.814 9.30235 11.189 9.30235 11.6512V14.8024L7.34328 11.2778C7.14979 10.9295 6.71444 10.747 6.2977 10.8374C5.8791 10.9262 5.58142 11.2627 5.58142 11.6512V18.3488C5.58142 18.811 5.99817 19.1861 6.51165 19.1861C7.02514 19.1861 7.44189 18.8127 7.44189 18.3488V15.1993L9.40096 18.7239C9.56096 19.0119 9.88654 19.1861 10.2326 19.1861C10.3033 19.1861 10.3758 19.1794 10.4465 19.1626C10.8651 19.0755 11.1628 18.7373 11.1628 18.3488V11.6512C11.1628 11.189 10.7461 10.814 10.2326 10.814Z" fill="#FAFAFA"/>
<path d="M15.5233 12.4884C16.0047 12.4884 16.3954 12.1133 16.3954 11.6512C16.3954 11.189 16.0047 10.814 15.5233 10.814H13.7791C13.2977 10.814 12.907 11.189 12.907 11.6512V18.3488C12.907 18.811 13.2977 19.1861 13.7791 19.1861H15.5233C16.0047 19.1861 16.3954 18.811 16.3954 18.3488C16.3954 17.8867 16.0047 17.5116 15.5233 17.5116H14.6512V15.8372H15.5233C16.0047 15.8372 16.3954 15.4622 16.3954 15C16.3954 14.5379 16.0047 14.1628 15.5233 14.1628H14.6512V12.4884H15.5233Z" fill="#FAFAFA"/>
<path d="M22.7908 10.814C22.2773 10.814 21.8605 11.1889 21.8605 11.6509V14.8013L21.7619 14.6255C21.4456 14.0581 20.4131 14.0581 20.0968 14.6255L20.0001 14.8013V11.6509C20.0001 11.1889 19.5833 10.814 19.0698 10.814C18.5563 10.814 18.1396 11.1889 18.1396 11.6509V18.3467C18.1396 18.7334 18.4354 19.0732 18.8559 19.1602C19.2819 19.259 19.7098 19.0665 19.9033 18.72L20.9303 16.872L21.9591 18.7217C22.1191 19.0096 22.4447 19.1837 22.7908 19.1837C22.8614 19.1837 22.9321 19.177 23.0047 19.1602C23.4252 19.0732 23.721 18.735 23.721 18.3467V11.6509C23.721 11.1889 23.3042 10.814 22.7908 10.814Z" fill="#FAFAFA"/>
</svg>
