<svg width="109" height="107" viewBox="0 0 109 107" fill="none" xmlns="http://www.w3.org/2000/svg">
<path opacity="0.198969" fill-rule="evenodd" clip-rule="evenodd" d="M66.3754 93.5736C43.6643 101.824 16.4744 76.2854 16.4744 47.4168C16.4744 18.5482 52.5799 6.20828 83.1679 24.7022C113.756 43.1961 89.0866 85.323 66.3754 93.5736Z" fill="#C6CEE4"/>
<path d="M24.3987 32.9072H84.3459V81.8885H24.3987V32.9072Z" fill="url(#paint0_linear_1_442)"/>
<path d="M77.2933 44.5403V70.2554H75.5354C74.5506 70.2554 73.7774 71.198 73.7774 72.3983V74.5413H35.1028V72.3983C35.1028 71.198 34.3296 70.2554 33.3449 70.2554H31.587V44.5403H33.3449C34.3296 44.5403 35.1028 43.5971 35.1028 42.3973V40.2544H73.7774V42.3973C73.7774 43.5971 74.5506 44.5403 75.5354 44.5403H77.2933Z" fill="white"/>
<path d="M40.674 50.3228H67.935V54.4045H40.674V50.3228Z" fill="#EB7EEA"/>
<path d="M44.0647 59.4387H64.8156V63.5205H44.0647V59.4387Z" fill="#EB7EEA"/>
<defs>
<linearGradient id="paint0_linear_1_442" x1="50.3571" y1="17.477" x2="30.3817" y2="73.3044" gradientUnits="userSpaceOnUse">
<stop stop-color="#91CBF1"/>
<stop offset="1" stop-color="#2C92D6"/>
</linearGradient>
</defs>
</svg>
