<svg width="51" height="51" viewBox="0 0 51 51" fill="none" xmlns="http://www.w3.org/2000/svg">
<path d="M20.2691 0.152222H17.4863C10.11 0.152222 4.10887 6.12486 4.10887 13.4652C4.10887 17.0208 5.50026 20.3633 8.02691 22.8785L8.49637 23.3456L5.98426 25.0125C4.81022 25.7916 4.10887 27.095 4.10887 28.4989C4.10887 29.188 3.839 29.8377 3.34934 30.325L2.59143 31.0792C1.48526 32.1791 0.876831 33.6426 0.876831 35.1976C0.876831 36.1456 1.24771 37.0365 1.92159 37.7071C2.29004 38.0746 2.49285 38.5627 2.49285 39.0813C2.49285 41.557 4.51692 43.572 7.00559 43.572H8.14892V34.4925C8.14892 31.1893 10.0235 28.1701 12.9897 26.6906V20.254L10.8412 18.6466C10.1633 18.1401 9.76494 17.3457 9.76494 16.5014C9.76494 15.0211 10.9705 13.8214 12.458 13.8214H12.9897V11.4092C12.9897 10.0769 14.0749 8.99699 15.4137 8.99699H22.6931C23.2894 8.99699 23.8049 9.32264 24.0853 9.80107H25.1171C26.4536 9.80107 27.5412 8.71879 27.5412 7.38885C27.5412 3.39825 24.2784 0.152222 20.2691 0.152222Z" fill="#4BA3DD"/>
<path fill-rule="evenodd" clip-rule="evenodd" d="M48.5494 11.4092C47.213 11.4092 46.1254 12.4915 46.1254 13.8215V14.1624C42.1128 16.5633 37.5354 17.8418 32.8466 17.8418H32.3892C30.1615 17.8418 28.3492 19.6453 28.3492 21.8622V25.0784C28.3492 26.4639 29.057 27.6877 30.1325 28.4113C29.5321 28.9959 29.1572 29.8072 29.1572 30.7069V31.1588C29.1572 31.4587 29.1943 31.7579 29.2671 32.0481L29.9321 34.6951L26.7332 44.2459V43.1636C26.7332 37.7265 24.2623 32.7774 20.2691 29.4807V25.0784H21.0771C23.3048 25.0784 25.1171 23.2749 25.1171 21.0581V18.3387L25.3167 18.2398C26.1902 17.8048 26.7332 16.93 26.7332 15.9579C26.7332 15.4529 26.5845 14.964 26.3025 14.5435L25.2755 13.011C25.1721 12.8558 25.1171 12.6749 25.1171 12.4891V10.6052C25.1171 9.27524 24.0296 8.19297 22.6931 8.19297H17.845H17.037C16.5918 8.19297 16.229 7.83274 16.229 7.3889C16.229 6.94505 16.5918 6.58483 17.037 6.58483H17.845V4.97668H17.037C15.7006 4.97668 14.613 6.05896 14.613 7.3889C14.613 7.69525 14.6768 7.98632 14.7819 8.25649C13.3016 8.54997 12.1817 9.85096 12.1817 11.4092V13.0286C10.3798 13.1686 8.95693 14.673 8.95693 16.5014C8.95693 17.5917 9.47971 18.6346 10.3556 19.2899L12.1817 20.6553V26.213C9.18398 27.9072 7.34091 31.0318 7.34091 34.4925V50.0046H34.7284L35.9849 38.7476H37.9378L38.7458 33.1191H38.8533C40.1898 33.1191 41.2773 32.0369 41.2773 30.7069C41.2773 30.6675 41.2721 30.6295 41.2669 30.5914L41.2669 30.5914V30.5913V30.5913C41.2634 30.5657 41.2599 30.5401 41.2579 30.514C42.9483 31.0953 44.5789 31.8527 46.1254 32.7782V33.1191C46.1254 34.4491 47.213 35.5314 48.5494 35.5314C49.8859 35.5314 50.9734 34.4491 50.9734 33.1191V13.8215C50.9734 12.4915 49.8859 11.4092 48.5494 11.4092ZM30.1139 25.8826H31.5812V24.2745H29.9652V22.6663H31.5812V21.0582H30.1139C30.4484 20.1247 31.3372 19.4501 32.3892 19.4501H32.8466C32.91 19.4501 32.9732 19.447 33.0364 19.4439H33.0365H33.0365H33.0365H33.0365H33.0366H33.0366H33.0366H33.0367H33.0367C33.0901 19.4413 33.1436 19.4387 33.1972 19.438V27.4908H32.8466H32.3892C31.3372 27.4908 30.4484 26.8162 30.1139 25.8826ZM33.0734 29.1061C32.998 29.1025 32.9225 29.0988 32.8466 29.0988H32.3892C31.498 29.0988 30.7732 29.82 30.7732 30.7069V31.1588C30.7732 31.3269 30.7942 31.4941 30.8346 31.6581L31.4487 34.1041L33.0518 34.6356L32.9508 32.3151H32.3892V30.7069H33.1972C33.6424 30.7069 34.0052 30.3467 34.0052 29.9029C34.0052 29.4847 33.6804 29.1527 33.2708 29.1133C33.2049 29.1125 33.1391 29.1093 33.0734 29.1061ZM21.8851 20.254C20.9939 20.254 20.2691 19.5328 20.2691 18.6459H23.5011V20.254H21.8851ZM10.573 16.5014C10.573 17.0892 10.8549 17.6512 11.3268 18.0034L13.7977 19.8528V26.0843C15.5495 26.5853 17.1841 27.3226 18.6531 28.2786V25.0784H18.5165C17.2859 25.0784 16.1797 24.3974 15.6311 23.3023L15.4921 23.0248L16.9385 22.3068L17.0774 22.5842C17.3513 23.131 17.9024 23.4703 18.5165 23.4703H21.0771C22.1291 23.4703 23.0179 22.7957 23.3524 21.8622H21.8851C20.1026 21.8622 18.6531 20.4197 18.6531 18.6459V17.0377H24.1184L24.5943 16.8013C24.9159 16.6405 25.1171 16.3173 25.1171 15.9579C25.1171 15.7721 25.0622 15.5912 24.9588 15.436L23.9318 13.9035C23.6498 13.4829 23.5011 12.9941 23.5011 12.4891V10.6052C23.5011 10.1613 23.1383 9.80111 22.6931 9.80111H17.845H17.037H15.4137C14.5225 9.80111 13.7977 10.5224 13.7977 11.4092V14.6255H12.458C11.4189 14.6255 10.573 15.4674 10.573 16.5014ZM15.421 48.3965V37.2698C15.421 35.4027 14.2252 33.7512 12.4443 33.161L11.9328 34.6855C13.0527 35.0578 13.805 36.0958 13.805 37.2698V48.3965H8.95693V34.4925C8.95693 31.5705 10.535 28.9348 13.0956 27.5421C20.1891 29.4462 25.1171 35.8257 25.1171 43.1636V48.3965H15.421ZM27.0467 48.3964H33.2821L34.3591 38.7476H33.2311L33.1277 36.3547L31.2847 35.7436L27.0467 48.3964ZM38.8533 31.511H38.0453V29.9029H38.8533C39.2985 29.9029 39.6613 30.2631 39.6613 30.7069C39.6613 31.1508 39.2985 31.511 38.8533 31.511ZM36.5368 37.1394L37.1525 32.8497C36.717 32.5611 36.4294 32.069 36.4294 31.5109V29.9028C36.4294 29.713 36.4682 29.5337 36.5296 29.3641C36.2704 29.3267 36.0094 29.3009 35.7482 29.2751C35.6723 29.2676 35.5963 29.2601 35.5203 29.2523C35.5793 29.4606 35.6213 29.6761 35.6213 29.9028C35.6213 30.7342 35.1963 31.4691 34.5507 31.9033L34.7794 37.1394H36.5368ZM34.8133 27.5623V19.3785C38.7862 19.0946 42.6388 17.9432 46.1254 16.0175V30.9233C42.6388 28.9976 38.7862 27.8461 34.8133 27.5623ZM48.5494 33.9232C48.9946 33.9232 49.3574 33.563 49.3574 33.1191V13.8215C49.3574 13.3776 48.9946 13.0174 48.5494 13.0174C48.1042 13.0174 47.7414 13.3776 47.7414 13.8215V33.1191C47.7414 33.563 48.1042 33.9232 48.5494 33.9232Z" fill="black"/>
<path d="M19.4611 13.8214C20.7975 13.8214 21.8851 12.7391 21.8851 11.4092H20.2691C20.2691 11.853 19.9063 12.2133 19.4611 12.2133C19.0158 12.2133 18.6531 11.853 18.6531 11.4092H17.037C17.037 12.7391 18.1246 13.8214 19.4611 13.8214Z" fill="black"/>
<path fill-rule="evenodd" clip-rule="evenodd" d="M32.3892 11.4092H31.5812C30.2448 11.4092 29.1572 10.3269 29.1572 8.99699V2.56443C29.1572 1.2345 30.2448 0.152222 31.5812 0.152222H44.5094C45.8458 0.152222 46.9334 1.2345 46.9334 2.56443V8.99699C46.9334 10.3269 45.8458 11.4092 44.5094 11.4092H39.9449L36.6175 14.0586C36.157 14.4245 35.5801 14.6255 34.9918 14.6255C33.5568 14.6255 32.3892 13.4644 32.3892 12.0356V11.4092ZM31.5812 1.76036C31.136 1.76036 30.7732 2.12059 30.7732 2.56443V8.99699C30.7732 9.44084 31.136 9.80107 31.5812 9.80107H34.0052V12.0356C34.0052 12.5767 34.448 13.0173 34.9918 13.0173C35.2148 13.0173 35.4338 12.941 35.6083 12.8019L39.3777 9.80107H44.5094C44.9546 9.80107 45.3174 9.44084 45.3174 8.99699V2.56443C45.3174 2.12059 44.9546 1.76036 44.5094 1.76036H31.5812Z" fill="black"/>
<path d="M38.8533 4.97668H40.4693V6.58483H38.8533V4.97668Z" fill="black"/>
<path d="M42.0853 4.97668H43.7014V6.58483H42.0853V4.97668Z" fill="black"/>
<path d="M35.6213 4.97668H37.2373V6.58483H35.6213V4.97668Z" fill="black"/>
<path d="M32.3892 4.97668H34.0052V6.58483H32.3892V4.97668Z" fill="black"/>
</svg>
