<svg width="17" height="18" viewBox="0 0 17 18" fill="none" xmlns="http://www.w3.org/2000/svg">
<g opacity="0.30412">
<path fill-rule="evenodd" clip-rule="evenodd" d="M5.54936 14.4484L2.45723 16.6183L2.98806 12.8932C1.70169 11.645 0.984375 9.91588 0.984375 8.00507C0.984375 4.19951 3.82957 1.1145 8.34867 1.1145C12.8678 1.1145 15.713 4.19951 15.713 8.00507C15.713 11.8106 12.8678 14.8956 8.34867 14.8956C7.32517 14.8956 6.38753 14.7374 5.54936 14.4484Z" stroke="black" stroke-width="1.47286" stroke-linecap="round" stroke-linejoin="round"/>
<path fill-rule="evenodd" clip-rule="evenodd" d="M7.70264 11.1919C7.70264 11.6188 8.0506 11.9671 8.47783 11.9671C8.90466 11.9671 9.25301 11.6188 9.25301 11.1919C9.25301 10.7651 8.90466 10.4167 8.47783 10.4167C8.0506 10.4167 7.70264 10.7651 7.70264 11.1919Z" fill="black" stroke="black" stroke-width="0.5"/>
<path fill-rule="evenodd" clip-rule="evenodd" d="M5.68348 7.14592C5.83721 7.42222 6.20164 7.52964 6.49644 7.38557C6.79184 7.24178 6.90669 6.9012 6.75296 6.62519C6.24294 5.70833 6.94527 4.5538 8.11935 4.5679C9.54603 4.59073 10.1851 6.383 8.91935 7.15636C8.2131 7.58772 7.79169 8.28889 7.79169 9.03208C7.79169 9.84659 8.99742 9.84321 8.99742 9.03208C8.99742 8.6712 9.21476 8.32273 9.57889 8.10028C11.8387 6.71992 10.7448 3.48131 8.13985 3.44043C6.0446 3.41421 4.75416 5.47742 5.68348 7.14592Z" fill="black" stroke="black" stroke-width="0.5"/>
</g>
</svg>
