<svg width="41" height="29" viewBox="0 0 41 29" fill="none" xmlns="http://www.w3.org/2000/svg">
<path d="M22.6228 28.3512L22.5625 26.624C27.8954 23.4708 31.121 19.5967 32.2363 15.0004C30.8867 15.8978 29.6478 16.3673 28.5181 16.4068C26.6353 16.4725 25.0202 15.8087 23.6736 14.413C22.327 13.0188 21.6166 11.2805 21.5438 9.1958C21.4633 6.89235 22.2487 4.92688 23.8979 3.30532C25.5478 1.68374 27.6176 0.828011 30.1053 0.741138C32.5945 0.654215 34.7102 1.57545 36.4526 3.5063C38.1957 5.4364 39.1182 7.88242 39.2216 10.8421C39.3672 15.013 37.8145 18.8073 34.5621 22.2304C31.3104 25.6512 27.3306 27.6915 22.6228 28.3512Z" fill="url(#paint0_linear_1_2556)"/>
<path d="M2.05687 28.3512L1.99655 26.624C7.32944 23.4708 10.5551 19.5967 11.6704 15.0004C10.3208 15.8978 9.0819 16.3673 7.9522 16.4068C6.06936 16.4725 4.45429 15.8087 3.10764 14.413C1.76104 13.0188 1.05065 11.2805 0.977846 9.1958C0.897408 6.89235 1.68278 4.92688 3.33196 3.30532C4.98187 1.68374 7.05173 0.828011 9.53943 0.741138C12.0286 0.654215 14.1443 1.57545 15.8867 3.5063C17.6298 5.4364 18.5523 7.88242 18.6556 10.8421C18.8013 15.013 17.2486 18.8073 13.9962 22.2304C10.7444 25.6512 6.76467 27.6915 2.05687 28.3512Z" fill="url(#paint1_linear_1_2556)"/>
<defs>
<linearGradient id="paint0_linear_1_2556" x1="30.5744" y1="-7.40982" x2="11.1542" y2="8.50737" gradientUnits="userSpaceOnUse">
<stop stop-color="#91CBF1"/>
<stop offset="1" stop-color="#2C92D6"/>
</linearGradient>
<linearGradient id="paint1_linear_1_2556" x1="10.0085" y1="-7.40982" x2="-9.41174" y2="8.50737" gradientUnits="userSpaceOnUse">
<stop stop-color="#91CBF1"/>
<stop offset="1" stop-color="#2C92D6"/>
</linearGradient>
</defs>
</svg>
