<svg width="108" height="108" viewBox="0 0 108 108" fill="none" xmlns="http://www.w3.org/2000/svg">
<path opacity="0.198969" fill-rule="evenodd" clip-rule="evenodd" d="M39.4259 15.294C61.6611 3.74058 87.0881 24.7483 92.5731 52.6294C98.0581 80.5105 57.1357 102.586 26.5477 84.0917C-4.04025 65.5978 17.1908 26.8474 39.4259 15.294Z" fill="#C6CEE4"/>
<path d="M48.7804 69.1107C45.5935 69.1107 43.0009 71.7175 43.0009 74.9217C43.0009 78.1259 45.5935 80.7327 48.7804 80.7327C51.9673 80.7327 54.5599 78.1259 54.5599 74.9217C54.5599 71.7175 51.9673 69.1107 48.7804 69.1107Z" fill="#EB7EEA"/>
<path d="M48.7805 56.1974C42.9536 56.1974 37.7443 58.9026 34.3269 63.1287L40.6071 69.4431C40.6071 69.4431 43.5362 65.2413 48.7806 65.2413C53.918 65.2413 56.9542 69.4431 56.9542 69.4431L63.2344 63.1287C59.8167 58.9026 54.6074 56.1974 48.7805 56.1974Z" fill="url(#paint0_linear_1_436)"/>
<path d="M48.7805 39.4101C59.2097 39.4101 68.5964 43.98 75.0674 51.231L81.444 44.8197C81.0106 44.345 69.4157 30.3706 48.7805 30.3706C28.1186 30.3706 16.5504 44.3449 16.117 44.8197L22.4936 51.231C28.9646 43.9799 38.3513 39.4101 48.7805 39.4101Z" fill="url(#paint1_linear_1_436)"/>
<path d="M48.7806 43.2841C39.4135 43.2841 30.9909 47.4222 25.2216 53.9738L31.5919 60.3788C35.7181 55.4564 41.8918 52.3233 48.7806 52.3233C55.6694 52.3233 61.8429 55.4564 65.9692 60.3788L72.3395 53.9738C66.5702 47.4221 58.1477 43.2841 48.7806 43.2841Z" fill="url(#paint2_linear_1_436)"/>
<defs>
<linearGradient id="paint0_linear_1_436" x1="50.0937" y1="52.2576" x2="43.3409" y2="69.7074" gradientUnits="userSpaceOnUse">
<stop stop-color="#91CBF1"/>
<stop offset="1" stop-color="#2C92D6"/>
</linearGradient>
<linearGradient id="paint1_linear_1_436" x1="51.7479" y1="24.1659" x2="43.8044" y2="53.6205" gradientUnits="userSpaceOnUse">
<stop stop-color="#91CBF1"/>
<stop offset="1" stop-color="#2C92D6"/>
</linearGradient>
<linearGradient id="paint2_linear_1_436" x1="50.9208" y1="38.1994" x2="43.6679" y2="61.8701" gradientUnits="userSpaceOnUse">
<stop stop-color="#91CBF1"/>
<stop offset="1" stop-color="#2C92D6"/>
</linearGradient>
</defs>
</svg>
