<svg width="60" height="60" viewBox="0 0 60 60" fill="none" xmlns="http://www.w3.org/2000/svg">
<path d="M39.2911 6.84399L34.2642 6.11094L32.0162 1.53991C31.7783 1.05622 31.2875 0.75 30.75 0.75C30.2125 0.75 29.7217 1.05622 29.4838 1.53991L27.2358 6.11094L22.2089 6.84399C21.677 6.92158 21.2352 7.29544 21.0691 7.80838C20.9031 8.32133 21.0416 8.8844 21.4264 9.26087L25.0638 12.8191L24.2049 17.8436C24.1141 18.3752 24.3319 18.9124 24.7667 19.2294C25.2015 19.5464 25.7779 19.5882 26.2536 19.3372L30.75 16.9651L35.2461 19.3372C35.7218 19.5882 36.2983 19.5464 36.7331 19.2294C37.1679 18.9124 37.3857 18.3752 37.2949 17.8436L36.4359 12.8191L40.0736 9.26087C40.4584 8.8844 40.5969 8.32133 40.4309 7.80838C40.2648 7.29544 39.823 6.92158 39.2911 6.84399Z" fill="url(#paint0_linear_1_2560)"/>
<path d="M55.338 18.6419L55.546 13.4912C55.568 12.9462 55.281 12.4358 54.8056 12.1747C54.3301 11.9137 53.7488 11.9473 53.3062 12.2614L49.1227 15.228L44.3251 13.4369C43.8176 13.2475 43.2473 13.3648 42.8541 13.7395C42.4608 14.1142 42.3128 14.6814 42.4722 15.2025L43.9795 20.1286L40.8065 24.1724C40.4708 24.6002 40.4053 25.183 40.6375 25.6757C40.8697 26.1683 41.3594 26.4855 41.9006 26.4937L47.0161 26.5714L49.8527 30.8616C50.1163 31.2603 50.5603 31.4999 51.0358 31.5C51.0972 31.4999 51.1584 31.4959 51.2193 31.4881C51.7561 31.4178 52.2068 31.0466 52.3818 30.5305L54.0361 25.6525L58.962 24.2602C59.4832 24.1128 59.8762 23.6802 59.9757 23.1441C60.0752 22.608 59.8641 22.0615 59.4311 21.7343L55.338 18.6419Z" fill="url(#paint1_linear_1_2560)"/>
<path d="M16.7705 20.1287L18.2778 15.2026C18.4373 14.6814 18.2893 14.1142 17.896 13.7395C17.5027 13.3648 16.9324 13.2475 16.4248 13.4369L11.6272 15.2279L7.4439 12.2614C7.00123 11.9473 6.41992 11.9137 5.9445 12.1747C5.46907 12.4358 5.18202 12.9462 5.20409 13.4912L5.41207 18.6419L1.31891 21.7344C0.885877 22.0616 0.674753 22.6081 0.774302 23.1442C0.873851 23.6802 1.26681 24.1129 1.78797 24.2602L6.714 25.6525L8.36803 30.5305C8.54306 31.0465 8.9937 31.4178 9.53049 31.488C10.0673 31.5583 10.5971 31.3154 10.8972 30.8616L13.7338 26.5715L18.8494 26.4937C19.3906 26.4855 19.8803 26.1684 20.1125 25.6757C20.3447 25.183 20.2792 24.6003 19.9434 24.1724L16.7705 20.1287Z" fill="url(#paint2_linear_1_2560)"/>
<path d="M46.678 36.844H36.3305V30.4256C36.3305 28.6796 36.3305 25.1986 31.7151 24.7541C31.4513 24.7295 31.1893 24.8165 30.9935 24.9935C30.7977 25.1706 30.6862 25.4215 30.6864 25.6844V32.0286C30.6864 32.2013 30.6381 32.3707 30.5469 32.5178L27.8644 36.844H27.982L22.2203 40.5783L21.75 47.2098L22.2203 55.5157C22.2203 57.5781 23.905 59.25 25.9831 59.25H44.7966C46.3552 59.25 47.6186 57.9961 47.6186 56.4492C47.6186 54.9024 46.3552 53.6485 44.7966 53.6485H45.7373C47.2959 53.6485 48.5593 52.3946 48.5593 50.8478C48.5593 49.3009 47.2959 48.047 45.7373 48.047H46.678C48.2365 48.047 49.5 46.7931 49.5 45.2463C49.5 43.6994 48.2365 42.4455 46.678 42.4455C48.2365 42.4455 49.5 41.1916 49.5 39.6447C49.5 38.0979 48.2365 36.844 46.678 36.844Z" fill="url(#paint3_linear_1_2560)"/>
<rect x="10.5" y="36.75" width="12" height="22.5" rx="2" fill="url(#paint4_linear_1_2560)"/>
<circle cx="16.5" cy="54.75" r="1.5" fill="white"/>
<defs>
<linearGradient id="paint0_linear_1_2560" x1="34.1726" y1="19.5816" x2="42.9711" y2="6.50712" gradientUnits="userSpaceOnUse">
<stop stop-color="#FFBA21"/>
<stop offset="1" stop-color="#FFDC77"/>
</linearGradient>
<linearGradient id="paint1_linear_1_2560" x1="53.6726" y1="31.5849" x2="62.953" y2="18.3247" gradientUnits="userSpaceOnUse">
<stop stop-color="#FFBA21"/>
<stop offset="1" stop-color="#FFDC77"/>
</linearGradient>
<linearGradient id="paint2_linear_1_2560" x1="13.9226" y1="31.5849" x2="23.203" y2="18.3247" gradientUnits="userSpaceOnUse">
<stop stop-color="#FFBA21"/>
<stop offset="1" stop-color="#FFDC77"/>
</linearGradient>
<linearGradient id="paint3_linear_1_2560" x1="31.8602" y1="71.5008" x2="57.8427" y2="54.8176" gradientUnits="userSpaceOnUse">
<stop stop-color="#F7BEB7"/>
<stop offset="1" stop-color="#F4E2DD"/>
</linearGradient>
<linearGradient id="paint4_linear_1_2560" x1="14.954" y1="32.5744" x2="2.95142" y2="49.8211" gradientUnits="userSpaceOnUse">
<stop stop-color="#91CBF1"/>
<stop offset="1" stop-color="#2C92D6"/>
</linearGradient>
</defs>
</svg>
