<svg width="51" height="51" viewBox="0 0 51 51" fill="none" xmlns="http://www.w3.org/2000/svg">
<path d="M9.14172 12.2132C9.14172 13.1017 8.41855 13.8214 7.5257 13.8214H18.0298C15.6284 13.8214 13.6399 12.0822 13.2545 9.80103H7.5257C8.41855 9.80103 9.14172 11.3247 9.14172 12.2132Z" fill="#4BA3DD"/>
<path d="M44.6942 9.80103H22.8052C22.4197 12.0822 20.4312 13.8214 18.0298 13.8214H43.8861C44.3322 13.8214 44.6942 14.1816 44.6942 14.6254V38.7476C44.6942 39.1914 44.3322 39.5516 43.8861 39.5516H6.71769C6.27167 39.5516 5.90968 39.1914 5.90968 38.7476V14.6254C5.90968 14.1816 6.27167 13.8214 6.71769 13.8214H7.5257C6.63285 13.8214 5.90968 13.1017 5.90968 12.2132C5.90968 11.3247 6.63285 9.80103 7.5257 9.80103H5.90968C3.682 9.80103 1.86963 11.6046 1.86963 13.8214V42.7679H48.7342V13.8214C48.7342 11.6046 46.9218 9.80103 44.6942 9.80103Z" fill="#4BA3DD"/>
<path d="M32.574 25.0784H39.0381V28.2947H32.574V25.0784Z" fill="#4BA3DD"/>
<path fill-rule="evenodd" clip-rule="evenodd" d="M6.7177 40.3557H43.8862C44.7774 40.3557 45.5022 39.6345 45.5022 38.7476V14.6255C45.5022 13.7386 44.7774 13.0173 43.8862 13.0173H21.9802C23.0314 11.9946 23.6859 10.5714 23.6859 8.997C23.6859 8.73889 23.6633 8.48239 23.6277 8.22911C23.745 8.2016 23.8291 8.18138 23.8655 8.17263L23.8815 8.1688L24.4939 8.01683V4.97664C25.3852 4.97664 26.1099 4.25539 26.1099 3.3685V1.76036C26.1099 0.873473 25.3852 0.152222 24.4939 0.152222H11.5658C10.6745 0.152222 9.94974 0.873473 9.94974 1.76036H9.14173C7.80529 1.76036 6.7177 2.84264 6.7177 4.17257V9.22616C5.72547 9.76408 5.10168 11.1897 5.10168 12.2133C5.10168 12.7118 5.2544 13.1757 5.51619 13.5609C5.26167 13.8447 5.10168 14.2154 5.10168 14.6255V38.7476C5.10168 39.6345 5.82647 40.3557 6.7177 40.3557ZM6.7177 14.6255H12.6816C10.0645 16.355 8.33373 19.3116 8.33373 22.6662V30.7069C8.33373 33.0926 10.0847 35.0738 12.3738 35.459V38.7476H6.7177V14.6255ZM22.0699 38.7476V20.254H23.6859V33.809C25.0757 33.4496 26.1099 32.2017 26.1099 30.7069V22.6662C26.1099 18.2325 22.4852 14.6255 18.0298 14.6255C13.5745 14.6255 9.94974 18.2325 9.94974 22.6662V30.7069C9.94974 32.2017 10.984 33.4496 12.3738 33.809V20.254H13.9898V38.7476H17.2218V31.511H18.8379V38.7476H22.0699ZM43.8862 38.7476H23.686V35.459C25.9751 35.0746 27.726 33.0934 27.726 30.7069V22.6662C27.726 19.3116 25.9953 16.355 23.3781 14.6255H43.8862V38.7476ZM18.0298 13.0173C20.2575 13.0173 22.0699 11.2138 22.0699 8.99698C22.0699 8.85648 22.0544 8.71744 22.039 8.57847L22.0368 8.55876C20.874 8.77425 19.3517 8.99698 18.0298 8.99698C16.7071 8.99698 15.1848 8.77345 14.0213 8.55876L14.0191 8.57934V8.57935V8.57936V8.57937V8.57939C14.0045 8.71805 13.9898 8.85679 13.9898 8.99698C13.9898 11.2138 15.8022 13.0173 18.0298 13.0173ZM22.8779 6.74881C21.8469 6.97315 19.7121 7.38885 18.0298 7.38885C16.3476 7.38885 14.2128 6.97315 13.1818 6.74881V4.97664H22.8779V6.74881ZM24.494 1.76036H11.5658H11.565L11.5658 3.3685H24.494V1.76036ZM9.14173 3.3685H9.94974C9.94974 4.25539 10.6745 4.97664 11.5658 4.97664V8.01683L12.1774 8.168L12.1999 8.17342C12.239 8.18289 12.3195 8.20236 12.4295 8.2283C12.3948 8.48239 12.3738 8.73889 12.3738 8.99699C12.3738 10.5714 13.0283 11.9946 14.0795 13.0173H9.80107C9.89157 12.7649 9.94974 12.4963 9.94974 12.2133C9.94974 11.1897 9.32596 9.76408 8.33372 9.22616V4.17257C8.33372 3.72873 8.69652 3.3685 9.14173 3.3685ZM8.33372 12.2133C8.33372 11.5539 7.78428 10.6405 7.52329 10.6051C7.26715 10.6405 6.7177 11.5539 6.7177 12.2133C6.7177 12.6571 7.0805 13.0173 7.52571 13.0173C7.97093 13.0173 8.33372 12.6571 8.33372 12.2133Z" fill="black"/>
<path fill-rule="evenodd" clip-rule="evenodd" d="M0.253601 41.9639V44.3761C0.253601 47.479 2.79075 50.0046 5.90967 50.0046H44.6941C47.8131 50.0046 50.3502 47.479 50.3502 44.3761V41.9639H0.253601ZM31.6174 43.572C31.2829 44.5055 30.3941 45.1801 29.342 45.1801H21.2619C20.2099 45.1801 19.3211 44.5055 18.9866 43.572H31.6174ZM44.6941 48.3964C46.9218 48.3964 48.7342 46.5929 48.7342 44.3761V43.572H33.3004C32.9247 45.4045 31.2925 46.7883 29.342 46.7883H21.2619C19.3105 46.7883 17.6791 45.4045 17.3034 43.572H1.86962V44.3761C1.86962 46.5929 3.68199 48.3964 5.90967 48.3964H44.6941Z" fill="black"/>
<path d="M40.6541 35.5314H42.2701V37.1395H40.6541V35.5314Z" fill="black"/>
<path d="M37.4221 35.5314H39.0381V37.1395H37.4221V35.5314Z" fill="black"/>
<path d="M34.19 35.5314H35.806V37.1395H34.19V35.5314Z" fill="black"/>
<path fill-rule="evenodd" clip-rule="evenodd" d="M42.2701 21.5293L36.9486 16.2336H29.342V33.9232H42.2701V21.5293ZM37.4221 18.9787L39.5116 21.0581H37.4221V18.9787ZM30.958 17.8418V32.315H40.6541V22.6662H35.8061V17.8418H30.958Z" fill="black"/>
<path d="M32.574 19.45H34.19V21.0581H32.574V19.45Z" fill="black"/>
<path d="M32.574 24.2743H39.0381V25.8824H32.574V24.2743Z" fill="black"/>
<path d="M32.574 27.4906H39.0381V29.0987H32.574V27.4906Z" fill="black"/>
</svg>
