<svg width="33" height="33" viewBox="0 0 33 33" fill="none" xmlns="http://www.w3.org/2000/svg">
<path fill-rule="evenodd" clip-rule="evenodd" d="M16.6751 0.919189C25.4244 0.919189 32.5168 8.00795 32.5168 16.7527C32.5168 25.4969 25.4244 32.5857 16.6751 32.5857C7.92641 32.5857 0.833984 25.4969 0.833984 16.7527C0.833984 8.00795 7.92641 0.919189 16.6751 0.919189Z" fill="#1C1D20" fill-opacity="0.304797"/>
<path fill-rule="evenodd" clip-rule="evenodd" d="M23.2682 13.5146C23.474 18.0953 20.0639 23.2029 14.0305 23.2029C12.1947 23.2029 10.4858 22.6635 9.0481 21.7386C10.772 21.9427 12.4928 21.4637 13.8598 20.3905C12.4371 20.3641 11.2371 19.4227 10.8236 18.1288C11.3325 18.2265 11.8338 18.1981 12.2912 18.073C10.7282 17.7589 9.64885 16.3467 9.68392 14.8384C10.1228 15.0829 10.6235 15.2291 11.1562 15.2456C9.70919 14.2768 9.29923 12.3619 10.1506 10.898C11.7538 12.8682 14.1486 14.1647 16.8497 14.3006C16.3763 12.2632 17.9176 10.3018 20.0164 10.3018C20.9508 10.3018 21.795 10.6976 22.388 11.3305C23.128 11.1843 23.8236 10.913 24.4522 10.54C24.2093 11.3 23.6937 11.9387 23.0233 12.3417C23.6803 12.2632 24.3068 12.088 24.8895 11.8286C24.4538 12.4823 23.903 13.0558 23.2682 13.5146Z" fill="white"/>
</svg>
